<?xml version="1.0" standalone="no"?>
<!DOCTYPE svg PUBLIC "-//W3C//DTD SVG 20010904//EN"
 "http://www.w3.org/TR/2001/REC-SVG-20010904/DTD/svg10.dtd">
<svg version="1.0" xmlns="http://www.w3.org/2000/svg"
 width="512.000000pt" height="512.000000pt" viewBox="0 0 512.000000 512.000000"
 preserveAspectRatio="xMidYMid meet">
<metadata>
Created by potrace 1.11, written by Peter Selinger 2001-2013
</metadata>
<g transform="translate(0.000000,512.000000) scale(0.100000,-0.100000)"
fill="#000000" stroke="none">
<path d="M0 2560 l0 -2560 2560 0 2560 0 0 2560 0 2560 -2560 0 -2560 0 0
-2560z m3815 1245 c144 -22 237 -50 345 -102 77 -37 109 -60 171 -122 117
-117 159 -225 159 -406 0 -179 -43 -290 -154 -400 -42 -41 -97 -83 -134 -102
l-62 -31 38 -12 c86 -28 214 -103 276 -164 114 -110 159 -233 158 -431 -1
-216 -51 -345 -187 -480 -65 -66 -98 -90 -175 -128 -106 -52 -232 -88 -395
-114 -88 -14 -170 -18 -410 -17 -294 0 -459 13 -602 44 l-53 12 0 1208 0 1208
48 10 c57 13 292 40 382 46 136 8 497 -3 595 -19z m-1385 -155 l0 -150 -395 0
-395 0 0 -1095 0 -1095 -175 0 -175 0 0 1095 0 1095 -390 0 -390 0 0 150 0
150 960 0 960 0 0 -150z"/>
<path d="M3215 3531 l-70 -6 -3 -387 -2 -388 192 0 c492 0 677 58 765 238 38
78 44 202 13 284 -44 117 -166 200 -351 239 -101 21 -409 33 -544 20z"/>
<path d="M3140 2032 l0 -439 92 -7 c138 -9 367 -7 476 5 394 43 577 217 541
513 -22 176 -130 283 -340 337 -76 20 -116 22 -426 26 l-343 5 0 -440z"/>
</g>
</svg>
